<svg width="550" height="550" viewBox="0 0 550 550" fill="none" xmlns="http://www.w3.org/2000/svg">
<path d="M265.866 25.1701C403.839 20.1256 519.78 127.883 524.83 265.856C529.879 403.829 422.127 519.773 284.154 524.829C146.173 529.885 30.2209 422.125 25.1705 284.144C20.1207 146.163 127.885 30.2146 265.866 25.1701Z" fill="#222222"/>
<path d="M285.198 35C297.077 37.1823 309.206 51.6495 314.695 70.7247C319.229 86.4799 320.074 106.964 317.063 123.876C312.899 147.271 304.214 157.484 292.49 168.02C298.006 178.338 300.176 185.993 302.408 199.501C308.975 195.721 316.233 185.991 320.499 176.439C328.074 159.477 330.936 137.369 329.387 116.019C327.347 87.8998 317.862 57.1411 305.33 39.6565C320.828 49.3777 338.323 68.6099 343.686 97.9016C347.332 117.815 345.958 140.191 340.526 158.755C332.583 185.906 318.878 199.136 303.059 208.097C302.908 219.565 301.172 226.157 298.133 236.038C303.433 235.02 309.064 232.631 314.194 230.142C328.577 223.163 342.427 214.412 352.703 194.228C360.925 178.117 365.138 156.769 364.382 135.04C363.578 109.524 355.613 85.7229 345.017 68.9869C353.927 76.7989 361.846 87.7709 368.287 101.229C379.247 124.554 382.672 146.187 375.808 174.959C373.488 184.886 370.078 193.888 365.778 201.434C353.635 222.746 332.627 235.152 316.202 240.551C312.548 241.76 308.872 242.741 305.18 243.495C301.637 244.264 297.983 244.861 294.478 246.039C287.117 248.514 281.471 257.875 280.76 271.52C293.225 271.296 306.769 270.122 319.113 268.292C336.262 265.562 353.4 261.924 368.763 247.215C387.463 229.313 395.094 199.622 389.693 163.16C387.796 150.351 385.394 138.828 381.849 127.206C382.626 128.724 383.376 130.281 384.101 131.878C394.128 154.217 401.8 190.861 399.529 219.274C397.363 246.385 391.556 257.454 380.328 273.409C383.494 278.751 386.766 282.9 389.7 288.858C395.821 301.285 399.388 317.728 399.921 334.181C400.942 365.655 391.897 401.833 380.471 425.227C380.632 423.882 383.78 414.816 384.426 412.385C385.491 408.73 386.13 404.634 387.002 400.869C393.915 371.022 393.906 338.335 379.665 315.024C362.281 286.571 337.202 282.702 314.714 279.762C303.572 278.304 291.798 277.297 280.621 277.605C283.129 300.125 292.749 302.878 303.625 304.37C308.546 305.045 313.979 306.918 318.865 308.465C347.195 317.265 383.837 352.497 378.176 412.971C375.263 444.085 358.944 463.742 345.291 479.441C346.857 476.328 348.547 473.501 350.094 470.213C356.532 456.524 360.946 442.52 362.977 424.863C365.33 404.403 363.631 382.309 357.029 364.744C347.214 338.634 330.129 325.316 313.653 317.461C308.519 315.013 302.855 313.189 297.628 311.32C301.622 323.062 302.979 327.399 303.385 341.107C309.608 343.717 315.582 347.936 321.118 353.631C332.404 365.306 340.606 384.522 343.902 407.011C346.681 426.289 345.197 447.38 339.68 464.807C333.38 484.706 318.313 502.313 305.95 507.877C327.382 476.361 338.31 417.695 321.106 374.071C316.738 362.996 310.198 353.703 303.118 348.659C300.487 364.987 299.221 368.101 292.791 380.294C296.012 382.802 299.033 385.227 301.887 388.976C310.57 400.403 316.364 417.48 318.005 436.484C320.697 468.853 312.165 496.887 295.002 509.53C290.706 512.694 286.588 513.805 282.042 515C294.802 505.962 303.339 494.473 307.673 470.25C315.272 427.783 295.66 384.431 270.549 390.927C261.329 393.332 253.043 402.252 247.562 415.671C242.158 429.09 239.985 445.792 241.525 462.074C243.345 481.863 249.306 495.272 258.242 506.596C261.056 509.801 263.705 511.942 266.701 514.498C263.974 514.018 261.282 513.026 258.672 511.537C226.279 493.383 222.927 421.83 249.226 387.849C251.646 384.721 254.517 382.248 257.177 379.793C251.21 369.609 249.506 362.617 247.237 348.533C239.477 354.963 234.11 361.757 228.651 373.882C222.04 388.566 218.737 409.864 219.943 428.541C221.993 460.125 230.945 489.001 244.862 508.921C238.607 504.623 234.921 503 228.828 496.622C217.747 485.021 209.724 468.732 206.432 446.326C203.286 424.781 205.147 401.889 211.593 382.816C219.416 359.147 232.449 347.656 246.782 341.061C246.823 329.253 248.745 320.825 252.417 311.164C233.185 317.747 212.824 326.201 198.298 352.025C190.456 365.966 185.296 388.063 185.753 407.866C186.449 437.995 193.754 458.314 205.501 478.213C195.971 469.152 182.301 450.638 176.336 434.445C171.502 421.322 169.985 401.43 171.991 386.016C178.687 334.566 210.033 313.642 236.154 306.879C239.171 306.09 242.197 305.418 245.231 304.86C257.037 302.713 266.636 302.07 269.521 277.347C244.932 278.598 202.409 279.24 181.574 301.503C171.694 312.06 163.447 327.426 160.63 347.801C157.066 373.576 161.935 399.222 169.418 421.165C154.385 394.774 145.135 347.261 153.047 311.427C156.577 295.439 163.142 284.207 170.659 274.15C169.413 272.546 168.182 270.906 166.966 269.23C157.432 255.987 151.797 239.851 150.279 218.294C148.277 189.848 157.378 151.644 167.15 129.395C159.332 163.49 153.306 199.417 169.362 230.184C178.394 247.49 188.233 254.134 200.682 259.74C223.473 270.004 246.283 269.767 269.523 271.484C268.166 257.152 262.406 247.218 254.202 245.461C251.981 244.985 249.733 244.608 247.512 244.121C243.493 243.234 239.481 242.276 235.473 241.246C213.074 235.255 187.159 218.493 175.74 180.842C171.366 166.419 169.091 147.138 171.993 131.225C175.626 111.305 183.387 95.3401 192.751 83.0688C196.289 78.3978 199.497 74.1691 203.444 70.5434C193.928 86.8417 187.822 108.439 186.138 131.759C185.307 143.859 185.846 155.59 188.025 167.147C196.766 213.513 227.847 231.056 252.4 236.222C248.615 224.978 247.938 221.514 247.289 208.349C243.959 206.726 240.702 204.665 237.544 202.182C225.226 192.494 212.704 175.145 207.796 152.219C203.497 131.999 203.86 109.572 208.806 89.8264C214.991 65.3028 230.03 49.4998 243.694 40.2709C224.275 70.6913 212.605 123.846 225.989 167.362C230.237 181.176 239.232 195.538 247.891 199.793C249.92 185.232 252.492 178.458 258.28 168.052C253.4 164.195 250.015 161.552 245.769 155.537C237.85 144.422 232.787 128.082 231.73 110.225C230.598 92.0656 233.288 73.7641 239.755 59.4607C245.903 45.7952 254.892 37.1337 264.679 35.443C248.433 48.6025 237.476 80.241 242.148 112.172C249.782 164.35 288.753 175.754 304.47 127.846C309.03 113.66 310.246 96.8351 307.852 81.0565C305.608 65.7655 300.207 52.6629 293.047 43.3498C290.631 40.2072 287.794 37.7307 285.198 35Z" fill="white"/>
<path d="M274.452 50.0306C282.73 49.1226 289.687 68.5189 289.99 93.3541C290.293 118.189 283.828 139.059 275.549 139.969C267.27 140.879 260.313 121.483 260.01 96.6459C259.707 71.8094 266.173 50.9386 274.452 50.0306Z" fill="#F75B1D"/>
</svg>
